<mxfile host="65bd71144e">
    <diagram id="ZFCFdrbxNpFnpmd12jei" name="Page-1">
        <mxGraphModel dx="6640" dy="3255" grid="0" gridSize="10" guides="1" tooltips="1" connect="1" arrows="1" fold="1" page="0" pageScale="1" pageWidth="850" pageHeight="1100" math="0" shadow="0">
            <root>
                <mxCell id="0"/>
                <mxCell id="1" parent="0"/>
                <mxCell id="2" value="&lt;p&gt;&lt;b&gt;&lt;font face=&quot;Comic Sans MS&quot;&gt;ContextApi:&amp;nbsp;&lt;/font&gt;&lt;/b&gt;&lt;/p&gt;" style="text;strokeColor=none;fillColor=none;html=1;align=center;verticalAlign=middle;whiteSpace=wrap;rounded=0;" vertex="1" parent="1">
                    <mxGeometry x="-155" y="-43" width="60" height="30" as="geometry"/>
                </mxCell>
                <mxCell id="4" value="&lt;font style=&quot;font-size: 7px;&quot;&gt;Context Api is globally state management in react to manage props accross multiple componets , rather than handling or passing them manually one by one for each components&amp;nbsp;&lt;/font&gt;" style="text;strokeColor=none;fillColor=none;html=1;align=left;verticalAlign=middle;whiteSpace=wrap;rounded=0;fontFamily=Comic Sans MS;" vertex="1" parent="1">
                    <mxGeometry x="-162" y="-20" width="183" height="59" as="geometry"/>
                </mxCell>
                <mxCell id="5" value="&lt;b&gt;&lt;font style=&quot;font-size: 10px;&quot;&gt;Context Api has 3 main Componets :&lt;/font&gt;&lt;/b&gt;" style="text;html=1;align=center;verticalAlign=middle;resizable=0;points=[];autosize=1;strokeColor=none;fillColor=none;fontSize=7;fontFamily=Comic Sans MS;" vertex="1" parent="1">
                    <mxGeometry x="-174" y="43" width="195" height="24" as="geometry"/>
                </mxCell>
                <mxCell id="6" value="&lt;span style=&quot;font-size: 7px;&quot;&gt;&lt;b&gt;1. createContext -&amp;gt;&amp;nbsp;&lt;br&gt;syntax: import {createContext} from &quot;react&quot;&lt;br&gt;&lt;/b&gt;&lt;/span&gt;&lt;div style=&quot;color: rgb(171, 178, 191); background-color: rgb(40, 44, 52); font-family: Consolas, &amp;quot;Courier New&amp;quot;, monospace; font-size: 15px; line-height: 20px;&quot;&gt;&lt;div&gt;&lt;span style=&quot;color: #c678dd;&quot;&gt;import&lt;/span&gt; &lt;span style=&quot;color: #e06c75;&quot;&gt;React&lt;/span&gt;, { &lt;span style=&quot;color: #e06c75;&quot;&gt;createContext&lt;/span&gt;&amp;nbsp;} &lt;span style=&quot;color: #c678dd;&quot;&gt;from&lt;/span&gt; &lt;span style=&quot;color: #98c379;&quot;&gt;&quot;react&quot;&lt;/span&gt;;&lt;/div&gt;&lt;br&gt;&lt;div&gt;&lt;span style=&quot;color: #c678dd;&quot;&gt;export&lt;/span&gt; &lt;span style=&quot;color: #c678dd;&quot;&gt;const&lt;/span&gt; &lt;span style=&quot;color: #e5c07b;&quot;&gt;ThemeContext&lt;/span&gt; &lt;span style=&quot;color: #56b6c2;&quot;&gt;=&lt;/span&gt; &lt;span style=&quot;color: #61afef;font-weight: bold;&quot;&gt;createContext&lt;/span&gt;({&lt;/div&gt;&lt;div&gt;&lt;br&gt;&lt;/div&gt;&lt;div&gt;});&lt;/div&gt;&lt;br&gt;&lt;/div&gt;" style="text;strokeColor=none;fillColor=none;html=1;align=left;verticalAlign=middle;whiteSpace=wrap;rounded=0;fontFamily=Comic Sans MS;" vertex="1" parent="1">
                    <mxGeometry x="-167" y="53" width="503" height="165" as="geometry"/>
                </mxCell>
                <mxCell id="7" value="&lt;span style=&quot;font-size: 7px;&quot;&gt;&lt;b&gt;1. createContext -&amp;gt;&amp;nbsp;syntax 2: import {createContext} from &quot;react&quot;&lt;br&gt;&lt;/b&gt;&lt;/span&gt;&lt;div style=&quot;color: rgb(171, 178, 191); background-color: rgb(40, 44, 52); font-family: Consolas, &amp;quot;Courier New&amp;quot;, monospace; font-size: 15px; line-height: 20px;&quot;&gt;&lt;div&gt;&lt;span style=&quot;color: #c678dd;&quot;&gt;import&lt;/span&gt; &lt;span style=&quot;color: #e06c75;&quot;&gt;React&lt;/span&gt;, { &lt;span style=&quot;color: #e06c75;&quot;&gt;createContext&lt;/span&gt;&amp;nbsp;} &lt;span style=&quot;color: #c678dd;&quot;&gt;from&lt;/span&gt; &lt;span style=&quot;color: #98c379;&quot;&gt;&quot;react&quot;&lt;/span&gt;;&lt;/div&gt;&lt;br&gt;&lt;div&gt;&lt;span style=&quot;color: #c678dd;&quot;&gt;export&lt;/span&gt; &lt;span style=&quot;color: #c678dd;&quot;&gt;const&lt;/span&gt; &lt;span style=&quot;color: #e5c07b;&quot;&gt;ThemeContext&lt;/span&gt; &lt;span style=&quot;color: #56b6c2;&quot;&gt;=&lt;/span&gt; &lt;span style=&quot;color: #61afef;font-weight: bold;&quot;&gt;createContext&lt;/span&gt;();&lt;/div&gt;&lt;br&gt;&lt;/div&gt;" style="text;strokeColor=none;fillColor=none;html=1;align=left;verticalAlign=middle;whiteSpace=wrap;rounded=0;fontFamily=Comic Sans MS;" vertex="1" parent="1">
                    <mxGeometry x="-167" y="178" width="503" height="165" as="geometry"/>
                </mxCell>
                <mxCell id="8" value="&lt;span style=&quot;font-size: 7px;&quot;&gt;&lt;b&gt;2. useContext-&amp;gt;&amp;nbsp;&lt;br&gt;syntax:&amp;nbsp;&lt;br&gt;&lt;/b&gt;&lt;/span&gt;&lt;div style=&quot;color: rgb(171, 178, 191); background-color: rgb(40, 44, 52); font-family: Consolas, &amp;quot;Courier New&amp;quot;, monospace; font-size: 15px; line-height: 20px;&quot;&gt;&lt;div&gt;&lt;span style=&quot;color: #c678dd;&quot;&gt;import&lt;/span&gt; &lt;span style=&quot;color: #e06c75;&quot;&gt;React&lt;/span&gt;, { &lt;span style=&quot;color: #e06c75;&quot;&gt;createContext,useContext&lt;/span&gt;&amp;nbsp;} &lt;span style=&quot;color: #c678dd;&quot;&gt;from&lt;/span&gt; &lt;span style=&quot;color: #98c379;&quot;&gt;&quot;react&quot;&lt;/span&gt;;&lt;/div&gt;&lt;br&gt;&lt;div&gt;&lt;span style=&quot;color: #c678dd;&quot;&gt;export&lt;/span&gt; &lt;span style=&quot;color: #c678dd;&quot;&gt;const&lt;/span&gt; &lt;span style=&quot;color: #e5c07b;&quot;&gt;ThemeContext&lt;/span&gt; &lt;span style=&quot;color: #56b6c2;&quot;&gt;=&lt;/span&gt; &lt;span style=&quot;color: #61afef;font-weight: bold;&quot;&gt;createContext&lt;/span&gt;({&lt;/div&gt;&lt;div&gt;&lt;br&gt;&lt;/div&gt;&lt;div&gt;});&lt;/div&gt;&lt;br&gt;&lt;/div&gt;" style="text;strokeColor=none;fillColor=none;html=1;align=left;verticalAlign=middle;whiteSpace=wrap;rounded=0;fontFamily=Comic Sans MS;" vertex="1" parent="1">
                    <mxGeometry x="-167" y="309" width="503" height="176" as="geometry"/>
                </mxCell>
                <mxCell id="9" value="&lt;div style=&quot;color: rgb(171, 178, 191); background-color: rgb(40, 44, 52); font-family: Consolas, &amp;quot;Courier New&amp;quot;, monospace; font-weight: normal; font-size: 15px; line-height: 20px;&quot;&gt;&lt;div&gt;&lt;span style=&quot;color: #c678dd;&quot;&gt;export&lt;/span&gt;&lt;span style=&quot;color: #abb2bf;&quot;&gt; &lt;/span&gt;&lt;span style=&quot;color: #c678dd;&quot;&gt;const&lt;/span&gt;&lt;span style=&quot;color: #abb2bf;&quot;&gt; &lt;/span&gt;&lt;span style=&quot;color: #e5c07b;&quot;&gt;ThemeProvider&lt;/span&gt;&lt;span style=&quot;color: #abb2bf;&quot;&gt; &lt;/span&gt;&lt;span style=&quot;color: #56b6c2;&quot;&gt;=&lt;/span&gt;&lt;span style=&quot;color: #abb2bf;&quot;&gt; &lt;/span&gt;&lt;span style=&quot;color: #e5c07b;&quot;&gt;ThemeContext&lt;/span&gt;&lt;span style=&quot;color: #abb2bf;&quot;&gt;.&lt;/span&gt;&lt;span style=&quot;color: #e06c75;&quot;&gt;Provider&lt;/span&gt;&lt;span style=&quot;color: #abb2bf;&quot;&gt;; &lt;/span&gt;&lt;span style=&quot;color: #7f848e;&quot;&gt;//in this line we have used .Provider before exporting so no need to use while wrapping component with themeProvider&lt;/span&gt;&lt;/div&gt;&lt;br&gt;&lt;div&gt;&lt;span style=&quot;color: #c678dd;&quot;&gt;export&lt;/span&gt;&lt;span style=&quot;color: #abb2bf;&quot;&gt; &lt;/span&gt;&lt;span style=&quot;color: #c678dd;&quot;&gt;default&lt;/span&gt;&lt;span style=&quot;color: #abb2bf;&quot;&gt; &lt;/span&gt;&lt;span style=&quot;color: #c678dd;&quot;&gt;function&lt;/span&gt;&lt;span style=&quot;color: #abb2bf;&quot;&gt; &lt;/span&gt;&lt;span style=&quot;color: #61afef;font-weight: bold;&quot;&gt;useTheme&lt;/span&gt;&lt;span style=&quot;color: #abb2bf;&quot;&gt;() {&lt;/span&gt;&lt;/div&gt;&lt;div&gt;&lt;span style=&quot;color: #abb2bf;&quot;&gt;&amp;nbsp; &lt;/span&gt;&lt;span style=&quot;color: #c678dd;&quot;&gt;return&lt;/span&gt;&lt;span style=&quot;color: #abb2bf;&quot;&gt; &lt;/span&gt;&lt;span style=&quot;color: #61afef;font-weight: bold;&quot;&gt;useContext&lt;/span&gt;&lt;span style=&quot;color: #abb2bf;&quot;&gt;(&lt;/span&gt;&lt;span style=&quot;color: #e5c07b;&quot;&gt;ThemeContext&lt;/span&gt;&lt;span style=&quot;color: #abb2bf;&quot;&gt;); //useContext&lt;/span&gt;&lt;/div&gt;&lt;div&gt;&lt;span style=&quot;color: #abb2bf;&quot;&gt;}&lt;/span&gt;&lt;/div&gt;&lt;br&gt;&lt;/div&gt;" style="text;whiteSpace=wrap;html=1;fontSize=10;fontFamily=Comic Sans MS;" vertex="1" parent="1">
                    <mxGeometry x="-167" y="474" width="684" height="150" as="geometry"/>
                </mxCell>
                <mxCell id="10" value="&lt;span style=&quot;font-size: 7px;&quot;&gt;&lt;b&gt;3. Provider-&amp;gt;&amp;nbsp;&lt;br&gt;syntax: import {createContext} from &quot;react&quot;&lt;br&gt;&lt;/b&gt;&lt;/span&gt;&lt;div style=&quot;color: rgb(171, 178, 191); background-color: rgb(40, 44, 52); font-family: Consolas, &amp;quot;Courier New&amp;quot;, monospace; font-size: 15px; line-height: 20px;&quot;&gt;&lt;div&gt;&lt;span style=&quot;color: #c678dd;&quot;&gt;import&lt;/span&gt; &lt;span style=&quot;color: #e06c75;&quot;&gt;React&lt;/span&gt;, { &lt;span style=&quot;color: #e06c75;&quot;&gt;createContext&lt;/span&gt;&amp;nbsp;} &lt;span style=&quot;color: #c678dd;&quot;&gt;from&lt;/span&gt; &lt;span style=&quot;color: #98c379;&quot;&gt;&quot;react&quot;&lt;/span&gt;;&lt;/div&gt;&lt;br&gt;&lt;div&gt;&lt;span style=&quot;color: #c678dd;&quot;&gt;export&lt;/span&gt; &lt;span style=&quot;color: #c678dd;&quot;&gt;const&lt;/span&gt; &lt;span style=&quot;color: #e5c07b;&quot;&gt;ThemeContext&lt;/span&gt; &lt;span style=&quot;color: #56b6c2;&quot;&gt;=&lt;/span&gt; &lt;span style=&quot;color: #61afef;font-weight: bold;&quot;&gt;createContext&lt;/span&gt;({&lt;/div&gt;&lt;div&gt;&lt;br&gt;&lt;/div&gt;&lt;div&gt;});&lt;/div&gt;&lt;br&gt;&lt;/div&gt;" style="text;strokeColor=none;fillColor=none;html=1;align=left;verticalAlign=middle;whiteSpace=wrap;rounded=0;fontFamily=Comic Sans MS;" vertex="1" parent="1">
                    <mxGeometry x="-167" y="652" width="503" height="176" as="geometry"/>
                </mxCell>
                <mxCell id="13" value="&lt;div style=&quot;background-color: rgb(40, 44, 52); line-height: 20px;&quot;&gt;&lt;div style=&quot;color: rgb(171, 178, 191); font-family: Consolas, &amp;quot;Courier New&amp;quot;, monospace; font-size: 15px; font-weight: normal;&quot;&gt;&lt;span style=&quot;color: #abb2bf;&quot;&gt;&amp;nbsp; &lt;/span&gt;&lt;span style=&quot;color: #abb2bf;&quot;&gt;&amp;lt;&lt;/span&gt;&lt;span style=&quot;color: #e5c07b;&quot;&gt;ThemeProvider&lt;/span&gt;&lt;span style=&quot;color: #abb2bf;&quot;&gt; &lt;/span&gt;&lt;span style=&quot;color: #d19a66;&quot;&gt;value&lt;/span&gt;&lt;span style=&quot;color: #56b6c2;&quot;&gt;=&lt;/span&gt;&lt;span style=&quot;color: #c678dd;&quot;&gt;{&lt;/span&gt;&lt;span style=&quot;color: #abb2bf;&quot;&gt;{ &lt;/span&gt;&lt;span style=&quot;color: #e06c75;&quot;&gt;themeMode&lt;/span&gt;&lt;span style=&quot;color: #abb2bf;&quot;&gt;, &lt;/span&gt;&lt;span style=&quot;color: #61afef;font-weight: bold;&quot;&gt;lightTheme&lt;/span&gt;&lt;span style=&quot;color: #abb2bf;&quot;&gt;, &lt;/span&gt;&lt;span style=&quot;color: #61afef;font-weight: bold;&quot;&gt;darkTheme&lt;/span&gt;&lt;span style=&quot;color: #abb2bf;&quot;&gt; }&lt;/span&gt;&lt;span style=&quot;color: #c678dd;&quot;&gt;}&lt;/span&gt;&lt;span style=&quot;color: #abb2bf;&quot;&gt;&amp;gt;&lt;/span&gt;&lt;/div&gt;&lt;div style=&quot;color: rgb(171, 178, 191); font-family: Consolas, &amp;quot;Courier New&amp;quot;, monospace; font-size: 15px; font-weight: normal;&quot;&gt;&lt;span style=&quot;color: #abb2bf;&quot;&gt;&amp;nbsp; &amp;nbsp; &amp;nbsp; &lt;/span&gt;&lt;span style=&quot;color: #abb2bf;&quot;&gt;&amp;lt;&lt;/span&gt;&lt;span style=&quot;color: #e06c75;&quot;&gt;div&lt;/span&gt;&lt;span style=&quot;color: #abb2bf;&quot;&gt; &lt;/span&gt;&lt;span style=&quot;color: #d19a66;&quot;&gt;className&lt;/span&gt;&lt;span style=&quot;color: #56b6c2;&quot;&gt;=&lt;/span&gt;&lt;span style=&quot;color: #98c379;&quot;&gt;&quot;flex flex-wrap min-h-screen items-center&quot;&lt;/span&gt;&lt;span style=&quot;color: #abb2bf;&quot;&gt;&amp;gt;&lt;/span&gt;&lt;/div&gt;&lt;div style=&quot;color: rgb(171, 178, 191); font-family: Consolas, &amp;quot;Courier New&amp;quot;, monospace; font-size: 15px; font-weight: normal;&quot;&gt;&lt;span style=&quot;color: #abb2bf;&quot;&gt;&amp;nbsp; &amp;nbsp; &amp;nbsp; &amp;nbsp; &lt;/span&gt;&lt;span style=&quot;color: #abb2bf;&quot;&gt;&amp;lt;&lt;/span&gt;&lt;span style=&quot;color: #e06c75;&quot;&gt;div&lt;/span&gt;&lt;span style=&quot;color: #abb2bf;&quot;&gt; &lt;/span&gt;&lt;span style=&quot;color: #d19a66;&quot;&gt;className&lt;/span&gt;&lt;span style=&quot;color: #56b6c2;&quot;&gt;=&lt;/span&gt;&lt;span style=&quot;color: #98c379;&quot;&gt;&quot;w-full&quot;&lt;/span&gt;&lt;span style=&quot;color: #abb2bf;&quot;&gt;&amp;gt;&lt;/span&gt;&lt;/div&gt;&lt;div style=&quot;color: rgb(171, 178, 191); font-family: Consolas, &amp;quot;Courier New&amp;quot;, monospace; font-size: 15px; font-weight: normal;&quot;&gt;&lt;span style=&quot;color: #abb2bf;&quot;&gt;&amp;nbsp; &amp;nbsp; &amp;nbsp; &amp;nbsp; &amp;nbsp; &lt;/span&gt;&lt;span style=&quot;color: #abb2bf;&quot;&gt;&amp;lt;&lt;/span&gt;&lt;span style=&quot;color: #e06c75;&quot;&gt;div&lt;/span&gt;&lt;span style=&quot;color: #abb2bf;&quot;&gt; &lt;/span&gt;&lt;span style=&quot;color: #d19a66;&quot;&gt;className&lt;/span&gt;&lt;span style=&quot;color: #56b6c2;&quot;&gt;=&lt;/span&gt;&lt;span style=&quot;color: #98c379;&quot;&gt;&quot;w-full max-w-sm mx-auto flex justify-end mb-4&quot;&lt;/span&gt;&lt;span style=&quot;color: #abb2bf;&quot;&gt;&amp;gt;&lt;/span&gt;&lt;/div&gt;&lt;div style=&quot;color: rgb(171, 178, 191); font-family: Consolas, &amp;quot;Courier New&amp;quot;, monospace; font-size: 15px; font-weight: normal;&quot;&gt;&lt;span style=&quot;color: #abb2bf;&quot;&gt;&amp;nbsp; &amp;nbsp; &amp;nbsp; &amp;nbsp; &amp;nbsp; &amp;nbsp; &lt;/span&gt;&lt;span style=&quot;color: #c678dd;&quot;&gt;{&lt;/span&gt;&lt;span style=&quot;color: #7f848e;&quot;&gt;/* theme btn */&lt;/span&gt;&lt;span style=&quot;color: #c678dd;&quot;&gt;}&lt;/span&gt;&lt;/div&gt;&lt;div style=&quot;color: rgb(171, 178, 191); font-family: Consolas, &amp;quot;Courier New&amp;quot;, monospace; font-size: 15px; font-weight: normal;&quot;&gt;&lt;span style=&quot;color: #abb2bf;&quot;&gt;&amp;nbsp; &amp;nbsp; &amp;nbsp; &amp;nbsp; &amp;nbsp; &amp;nbsp; &lt;/span&gt;&lt;span style=&quot;color: #abb2bf;&quot;&gt;&amp;lt;&lt;/span&gt;&lt;span style=&quot;color: #e5c07b;&quot;&gt;Button&lt;/span&gt;&lt;span style=&quot;color: #abb2bf;&quot;&gt; &lt;/span&gt;&lt;span style=&quot;color: #abb2bf;&quot;&gt;/&amp;gt;&lt;/span&gt;&lt;/div&gt;&lt;div style=&quot;color: rgb(171, 178, 191); font-family: Consolas, &amp;quot;Courier New&amp;quot;, monospace; font-size: 15px; font-weight: normal;&quot;&gt;&lt;span style=&quot;color: #abb2bf;&quot;&gt;&amp;nbsp; &amp;nbsp; &amp;nbsp; &amp;nbsp; &amp;nbsp; &lt;/span&gt;&lt;span style=&quot;color: #abb2bf;&quot;&gt;&amp;lt;/&lt;/span&gt;&lt;span style=&quot;color: #e06c75;&quot;&gt;div&lt;/span&gt;&lt;span style=&quot;color: #abb2bf;&quot;&gt;&amp;gt;&lt;/span&gt;&lt;/div&gt;&lt;br&gt;&lt;div style=&quot;color: rgb(171, 178, 191); font-family: Consolas, &amp;quot;Courier New&amp;quot;, monospace; font-size: 15px; font-weight: normal;&quot;&gt;&lt;span style=&quot;color: #abb2bf;&quot;&gt;&amp;nbsp; &amp;nbsp; &amp;nbsp; &amp;nbsp; &amp;nbsp; &lt;/span&gt;&lt;span style=&quot;color: #abb2bf;&quot;&gt;&amp;lt;&lt;/span&gt;&lt;span style=&quot;color: #e06c75;&quot;&gt;div&lt;/span&gt;&lt;span style=&quot;color: #abb2bf;&quot;&gt; &lt;/span&gt;&lt;span style=&quot;color: #d19a66;&quot;&gt;className&lt;/span&gt;&lt;span style=&quot;color: #56b6c2;&quot;&gt;=&lt;/span&gt;&lt;span style=&quot;color: #98c379;&quot;&gt;&quot;w-full max-w-sm mx-auto&quot;&lt;/span&gt;&lt;span style=&quot;color: #abb2bf;&quot;&gt;&amp;gt;&lt;/span&gt;&lt;/div&gt;&lt;div style=&quot;color: rgb(171, 178, 191); font-family: Consolas, &amp;quot;Courier New&amp;quot;, monospace; font-size: 15px; font-weight: normal;&quot;&gt;&lt;span style=&quot;color: #abb2bf;&quot;&gt;&amp;nbsp; &amp;nbsp; &amp;nbsp; &amp;nbsp; &amp;nbsp; &amp;nbsp; &lt;/span&gt;&lt;span style=&quot;color: #c678dd;&quot;&gt;{&lt;/span&gt;&lt;span style=&quot;color: #7f848e;&quot;&gt;/* card */&lt;/span&gt;&lt;span style=&quot;color: #c678dd;&quot;&gt;}&lt;/span&gt;&lt;/div&gt;&lt;div style=&quot;color: rgb(171, 178, 191); font-family: Consolas, &amp;quot;Courier New&amp;quot;, monospace; font-size: 15px; font-weight: normal;&quot;&gt;&lt;span style=&quot;color: #abb2bf;&quot;&gt;&amp;nbsp; &amp;nbsp; &amp;nbsp; &amp;nbsp; &amp;nbsp; &amp;nbsp; &lt;/span&gt;&lt;span style=&quot;color: #abb2bf;&quot;&gt;&amp;lt;&lt;/span&gt;&lt;span style=&quot;color: #e5c07b;&quot;&gt;Card&lt;/span&gt;&lt;span style=&quot;color: #abb2bf;&quot;&gt; &lt;/span&gt;&lt;span style=&quot;color: #abb2bf;&quot;&gt;/&amp;gt;&lt;/span&gt;&lt;/div&gt;&lt;div style=&quot;color: rgb(171, 178, 191); font-family: Consolas, &amp;quot;Courier New&amp;quot;, monospace; font-size: 15px; font-weight: normal;&quot;&gt;&lt;span style=&quot;color: #abb2bf;&quot;&gt;&amp;nbsp; &amp;nbsp; &amp;nbsp; &amp;nbsp; &amp;nbsp; &lt;/span&gt;&lt;span style=&quot;color: #abb2bf;&quot;&gt;&amp;lt;/&lt;/span&gt;&lt;span style=&quot;color: #e06c75;&quot;&gt;div&lt;/span&gt;&lt;span style=&quot;color: #abb2bf;&quot;&gt;&amp;gt;&lt;/span&gt;&lt;/div&gt;&lt;div style=&quot;color: rgb(171, 178, 191); font-family: Consolas, &amp;quot;Courier New&amp;quot;, monospace; font-size: 15px; font-weight: normal;&quot;&gt;&lt;span style=&quot;color: #abb2bf;&quot;&gt;&amp;nbsp; &amp;nbsp; &amp;nbsp; &amp;nbsp; &lt;/span&gt;&lt;span style=&quot;color: #abb2bf;&quot;&gt;&amp;lt;/&lt;/span&gt;&lt;span style=&quot;color: #e06c75;&quot;&gt;div&lt;/span&gt;&lt;span style=&quot;color: #abb2bf;&quot;&gt;&amp;gt;&lt;/span&gt;&lt;/div&gt;&lt;div style=&quot;color: rgb(171, 178, 191); font-family: Consolas, &amp;quot;Courier New&amp;quot;, monospace; font-size: 15px; font-weight: normal;&quot;&gt;&lt;span style=&quot;color: #abb2bf;&quot;&gt;&amp;nbsp; &amp;nbsp; &amp;nbsp; &lt;/span&gt;&lt;span style=&quot;color: #abb2bf;&quot;&gt;&amp;lt;/&lt;/span&gt;&lt;span style=&quot;color: #e06c75;&quot;&gt;div&lt;/span&gt;&lt;span style=&quot;color: #abb2bf;&quot;&gt;&amp;gt;&lt;/span&gt;&lt;/div&gt;&lt;div style=&quot;color: rgb(171, 178, 191); font-family: Consolas, &amp;quot;Courier New&amp;quot;, monospace; font-size: 15px; font-weight: normal;&quot;&gt;&lt;span style=&quot;color: #abb2bf;&quot;&gt;&amp;nbsp; &amp;nbsp; &lt;/span&gt;&lt;span style=&quot;color: #abb2bf;&quot;&gt;&amp;lt;/&lt;/span&gt;&lt;span style=&quot;color: #e5c07b;&quot;&gt;ThemeProvider&lt;/span&gt;&lt;span style=&quot;color: #abb2bf;&quot;&gt;&amp;gt;&lt;/span&gt;&lt;/div&gt;&lt;div style=&quot;color: rgb(171, 178, 191); font-family: Consolas, &amp;quot;Courier New&amp;quot;, monospace; font-size: 15px; font-weight: normal;&quot;&gt;&lt;span style=&quot;color: #abb2bf;&quot;&gt;&lt;br&gt;&lt;/span&gt;&lt;/div&gt;&lt;div style=&quot;color: rgb(171, 178, 191); font-family: Consolas, &amp;quot;Courier New&amp;quot;, monospace; font-size: 15px; font-weight: normal;&quot;&gt;The expression &lt;code&gt;value={&lt;span style=&quot;border-color: var(--border-color); color: rgb(171, 178, 191); background-color: rgb(40, 44, 52);&quot;&gt;{&amp;nbsp;&lt;/span&gt;&lt;span style=&quot;border-color: var(--border-color); background-color: rgb(40, 44, 52); color: rgb(224, 108, 117);&quot;&gt;themeMode&lt;/span&gt;&lt;span style=&quot;border-color: var(--border-color); color: rgb(171, 178, 191); background-color: rgb(40, 44, 52);&quot;&gt;,&amp;nbsp;&lt;/span&gt;&lt;span style=&quot;border-color: var(--border-color); background-color: rgb(40, 44, 52); color: rgb(97, 175, 239); font-weight: bold;&quot;&gt;lightTheme&lt;/span&gt;&lt;span style=&quot;border-color: var(--border-color); color: rgb(171, 178, 191); background-color: rgb(40, 44, 52);&quot;&gt;,&amp;nbsp;&lt;/span&gt;&lt;span style=&quot;border-color: var(--border-color); background-color: rgb(40, 44, 52); color: rgb(97, 175, 239); font-weight: bold;&quot;&gt;darkTheme&lt;/span&gt;&lt;span style=&quot;border-color: var(--border-color); color: rgb(171, 178, 191); background-color: rgb(40, 44, 52);&quot;&gt;&amp;nbsp;}&lt;/span&gt;}&lt;/code&gt; in the &lt;strong&gt;Context API&lt;/strong&gt; is used to define the value that is passed to all components that consume the context. Let me break it down:&lt;span style=&quot;color: #abb2bf;&quot;&gt;&lt;br&gt;&lt;/span&gt;&lt;/div&gt;&lt;div style=&quot;color: rgb(171, 178, 191); font-family: Consolas, &amp;quot;Courier New&amp;quot;, monospace; font-size: 15px; font-weight: normal;&quot;&gt;&lt;br&gt;&lt;/div&gt;&lt;div style=&quot;color: rgb(171, 178, 191); font-family: Consolas, &amp;quot;Courier New&amp;quot;, monospace; font-size: 15px; font-weight: normal;&quot;&gt;//syntax in this we have accesd provider directly here&lt;/div&gt;&lt;div style=&quot;&quot;&gt;&lt;div style=&quot;&quot;&gt;&lt;font face=&quot;Consolas, Courier New, monospace&quot; color=&quot;#abb2bf&quot;&gt;&lt;span style=&quot;font-size: 15px;&quot;&gt;&amp;lt;ThemeContext.Provider value={{ theme, toggleTheme }}&amp;gt;&lt;/span&gt;&lt;/font&gt;&lt;/div&gt;&lt;div style=&quot;&quot;&gt;&lt;font face=&quot;Consolas, Courier New, monospace&quot; color=&quot;#abb2bf&quot;&gt;&lt;span style=&quot;font-size: 15px;&quot;&gt;&amp;nbsp; {/* Child components go here */}&lt;/span&gt;&lt;/font&gt;&lt;/div&gt;&lt;div style=&quot;&quot;&gt;&lt;font face=&quot;Consolas, Courier New, monospace&quot; color=&quot;#abb2bf&quot;&gt;&lt;span style=&quot;font-size: 15px;&quot;&gt;&amp;lt;/ThemeContext.Provider&amp;gt;&lt;/span&gt;&lt;/font&gt;&lt;/div&gt;&lt;/div&gt;&lt;div style=&quot;color: rgb(171, 178, 191); font-family: Consolas, &amp;quot;Courier New&amp;quot;, monospace; font-size: 15px; font-weight: normal;&quot;&gt;&lt;br&gt;&lt;/div&gt;&lt;/div&gt;" style="text;whiteSpace=wrap;html=1;fontSize=10;fontFamily=Comic Sans MS;" vertex="1" parent="1">
                    <mxGeometry x="-167.00032946134854" y="823.001052631579" width="550" height="362" as="geometry"/>
                </mxCell>
                <mxCell id="17" style="edgeStyle=none;curved=1;rounded=0;orthogonalLoop=1;jettySize=auto;html=1;fontFamily=Comic Sans MS;fontSize=13;endArrow=open;startSize=14;endSize=14;sourcePerimeterSpacing=8;targetPerimeterSpacing=8;" edge="1" parent="1">
                    <mxGeometry relative="1" as="geometry">
                        <mxPoint x="938" y="1531.1662049861498" as="sourcePoint"/>
                        <mxPoint x="938" y="1550.8337950138502" as="targetPoint"/>
                    </mxGeometry>
                </mxCell>
                <mxCell id="19" value="&lt;b style=&quot;border-color: var(--border-color); color: rgb(0, 0, 0); font-family: &amp;quot;Comic Sans MS&amp;quot;; font-size: 10px; font-style: normal; font-variant-ligatures: normal; font-variant-caps: normal; letter-spacing: normal; orphans: 2; text-align: center; text-indent: 0px; text-transform: none; widows: 2; word-spacing: 0px; -webkit-text-stroke-width: 0px; background-color: rgb(255, 255, 255); text-decoration-thickness: initial; text-decoration-style: initial; text-decoration-color: initial;&quot;&gt;&lt;font style=&quot;border-color: var(--border-color); font-size: 13px;&quot;&gt;Example where we created a theme context to use it globally (theme.js):&lt;/font&gt;&lt;/b&gt;&lt;br style=&quot;border-color: var(--border-color); color: rgb(0, 0, 0); font-family: &amp;quot;Comic Sans MS&amp;quot;; font-size: 10px; font-style: normal; font-variant-ligatures: normal; font-variant-caps: normal; font-weight: 400; letter-spacing: normal; orphans: 2; text-align: center; text-indent: 0px; text-transform: none; widows: 2; word-spacing: 0px; -webkit-text-stroke-width: 0px; background-color: rgb(255, 255, 255); text-decoration-thickness: initial; text-decoration-style: initial; text-decoration-color: initial;&quot;&gt;&lt;div style=&quot;border-color: var(--border-color); font-style: normal; font-variant-ligatures: normal; font-variant-caps: normal; font-weight: 400; letter-spacing: normal; orphans: 2; text-align: center; text-indent: 0px; text-transform: none; widows: 2; word-spacing: 0px; -webkit-text-stroke-width: 0px; text-decoration-thickness: initial; text-decoration-style: initial; text-decoration-color: initial; color: rgb(171, 178, 191); background-color: rgb(40, 44, 52); font-family: Consolas, &amp;quot;Courier New&amp;quot;, monospace; font-size: 15px; line-height: 20px;&quot;&gt;&lt;div style=&quot;border-color: var(--border-color);&quot;&gt;&lt;span style=&quot;border-color: var(--border-color); color: rgb(198, 120, 221);&quot;&gt;import&lt;/span&gt;&lt;span&gt;&amp;nbsp;&lt;/span&gt;&lt;span style=&quot;border-color: var(--border-color); color: rgb(224, 108, 117);&quot;&gt;React&lt;/span&gt;, {&lt;span&gt;&amp;nbsp;&lt;/span&gt;&lt;span style=&quot;border-color: var(--border-color); color: rgb(224, 108, 117);&quot;&gt;createContext&lt;/span&gt;,&lt;span&gt;&amp;nbsp;&lt;/span&gt;&lt;span style=&quot;border-color: var(--border-color); color: rgb(224, 108, 117);&quot;&gt;useContext&lt;/span&gt;&lt;span&gt;&amp;nbsp;&lt;/span&gt;}&lt;span&gt;&amp;nbsp;&lt;/span&gt;&lt;span style=&quot;border-color: var(--border-color); color: rgb(198, 120, 221);&quot;&gt;from&lt;/span&gt;&lt;span&gt;&amp;nbsp;&lt;/span&gt;&lt;span style=&quot;border-color: var(--border-color); color: rgb(152, 195, 121);&quot;&gt;&quot;react&quot;&lt;/span&gt;;&lt;/div&gt;&lt;br style=&quot;border-color: var(--border-color);&quot;&gt;&lt;div style=&quot;border-color: var(--border-color);&quot;&gt;&lt;span style=&quot;border-color: var(--border-color); color: rgb(198, 120, 221);&quot;&gt;export&lt;/span&gt;&lt;span&gt;&amp;nbsp;&lt;/span&gt;&lt;span style=&quot;border-color: var(--border-color); color: rgb(198, 120, 221);&quot;&gt;const&lt;/span&gt;&lt;span&gt;&amp;nbsp;&lt;/span&gt;&lt;span style=&quot;border-color: var(--border-color); color: rgb(229, 192, 123);&quot;&gt;ThemeContext&lt;/span&gt;&lt;span&gt;&amp;nbsp;&lt;/span&gt;&lt;span style=&quot;border-color: var(--border-color); color: rgb(86, 182, 194);&quot;&gt;=&lt;/span&gt;&lt;span&gt;&amp;nbsp;&lt;/span&gt;&lt;span style=&quot;border-color: var(--border-color); color: rgb(97, 175, 239); font-weight: bold;&quot;&gt;createContext&lt;/span&gt;({&lt;/div&gt;&lt;div style=&quot;border-color: var(--border-color);&quot;&gt;&amp;nbsp;&lt;span&gt;&amp;nbsp;&lt;/span&gt;&lt;span style=&quot;border-color: var(--border-color); color: rgb(224, 108, 117);&quot;&gt;themeMode&lt;/span&gt;:&lt;span&gt;&amp;nbsp;&lt;/span&gt;&lt;span style=&quot;border-color: var(--border-color); color: rgb(152, 195, 121);&quot;&gt;&quot;light&quot;&lt;/span&gt;,&lt;/div&gt;&lt;div style=&quot;border-color: var(--border-color);&quot;&gt;&amp;nbsp;&lt;span&gt;&amp;nbsp;&lt;/span&gt;&lt;span style=&quot;border-color: var(--border-color); color: rgb(97, 175, 239); font-weight: bold;&quot;&gt;darkTheme&lt;/span&gt;: ()&lt;span&gt;&amp;nbsp;&lt;/span&gt;&lt;span style=&quot;border-color: var(--border-color); color: rgb(198, 120, 221);&quot;&gt;=&amp;gt;&lt;/span&gt;&lt;span&gt;&amp;nbsp;&lt;/span&gt;{},&lt;/div&gt;&lt;div style=&quot;border-color: var(--border-color);&quot;&gt;&amp;nbsp;&lt;span&gt;&amp;nbsp;&lt;/span&gt;&lt;span style=&quot;border-color: var(--border-color); color: rgb(97, 175, 239); font-weight: bold;&quot;&gt;lightTheme&lt;/span&gt;: ()&lt;span&gt;&amp;nbsp;&lt;/span&gt;&lt;span style=&quot;border-color: var(--border-color); color: rgb(198, 120, 221);&quot;&gt;=&amp;gt;&lt;/span&gt;&lt;span&gt;&amp;nbsp;&lt;/span&gt;{},&lt;/div&gt;&lt;div style=&quot;border-color: var(--border-color);&quot;&gt;});&lt;/div&gt;&lt;br style=&quot;border-color: var(--border-color);&quot;&gt;&lt;div style=&quot;border-color: var(--border-color);&quot;&gt;&lt;span style=&quot;border-color: var(--border-color); color: rgb(198, 120, 221);&quot;&gt;export&lt;/span&gt;&lt;span&gt;&amp;nbsp;&lt;/span&gt;&lt;span style=&quot;border-color: var(--border-color); color: rgb(198, 120, 221);&quot;&gt;const&lt;/span&gt;&lt;span&gt;&amp;nbsp;&lt;/span&gt;&lt;span style=&quot;border-color: var(--border-color); color: rgb(229, 192, 123);&quot;&gt;ThemeProvider&lt;/span&gt;&lt;span&gt;&amp;nbsp;&lt;/span&gt;&lt;span style=&quot;border-color: var(--border-color); color: rgb(86, 182, 194);&quot;&gt;=&lt;/span&gt;&lt;span&gt;&amp;nbsp;&lt;/span&gt;&lt;span style=&quot;border-color: var(--border-color); color: rgb(229, 192, 123);&quot;&gt;ThemeContext&lt;/span&gt;.&lt;span style=&quot;border-color: var(--border-color); color: rgb(224, 108, 117);&quot;&gt;Provider&lt;/span&gt;;&lt;span&gt;&amp;nbsp;&lt;/span&gt;&lt;span style=&quot;border-color: var(--border-color); color: rgb(127, 132, 142);&quot;&gt;//in this line we have used .Provider before exporting so no need to use while wrapping component with themeProvider&lt;/span&gt;&lt;/div&gt;&lt;br style=&quot;border-color: var(--border-color);&quot;&gt;&lt;div style=&quot;border-color: var(--border-color);&quot;&gt;&lt;span style=&quot;border-color: var(--border-color); color: rgb(198, 120, 221);&quot;&gt;export&lt;/span&gt;&lt;span&gt;&amp;nbsp;&lt;/span&gt;&lt;span style=&quot;border-color: var(--border-color); color: rgb(198, 120, 221);&quot;&gt;default&lt;/span&gt;&lt;span&gt;&amp;nbsp;&lt;/span&gt;&lt;span style=&quot;border-color: var(--border-color); color: rgb(198, 120, 221);&quot;&gt;function&lt;/span&gt;&lt;span&gt;&amp;nbsp;&lt;/span&gt;&lt;span style=&quot;border-color: var(--border-color); color: rgb(97, 175, 239); font-weight: bold;&quot;&gt;useTheme&lt;/span&gt;() {&lt;/div&gt;&lt;div style=&quot;border-color: var(--border-color);&quot;&gt;&amp;nbsp;&lt;span&gt;&amp;nbsp;&lt;/span&gt;&lt;span style=&quot;border-color: var(--border-color); color: rgb(198, 120, 221);&quot;&gt;return&lt;/span&gt;&lt;span&gt;&amp;nbsp;&lt;/span&gt;&lt;span style=&quot;border-color: var(--border-color); color: rgb(97, 175, 239); font-weight: bold;&quot;&gt;useContext&lt;/span&gt;(&lt;span style=&quot;border-color: var(--border-color); color: rgb(229, 192, 123);&quot;&gt;ThemeContext&lt;/span&gt;);&lt;/div&gt;&lt;div style=&quot;border-color: var(--border-color);&quot;&gt;}&lt;/div&gt;&lt;/div&gt;" style="text;whiteSpace=wrap;html=1;fontSize=13;fontFamily=Comic Sans MS;" vertex="1" parent="1">
                    <mxGeometry x="-164.9966259765625" y="1398.996748046875" width="550" height="353" as="geometry"/>
                </mxCell>
                <mxCell id="20" value="&lt;div style=&quot;color: rgb(171, 178, 191); background-color: rgb(40, 44, 52); font-family: Consolas, &amp;quot;Courier New&amp;quot;, monospace; font-weight: normal; font-size: 15px; line-height: 20px;&quot;&gt;&lt;div&gt;&lt;div style=&quot;line-height: 20px;&quot;&gt;&lt;span style=&quot;color: #c678dd;&quot;&gt;import&lt;/span&gt; &lt;span style=&quot;color: #e06c75;&quot;&gt;useTheme&lt;/span&gt; &lt;span style=&quot;color: #c678dd;&quot;&gt;from&lt;/span&gt; &lt;span style=&quot;color: #98c379;&quot;&gt;&quot;../contexts/theme&quot;&lt;/span&gt;;&lt;/div&gt;&lt;/div&gt;&lt;div style=&quot;line-height: 20px;&quot;&gt;const child=()=&amp;gt;{&lt;/div&gt;&lt;div&gt;&lt;span style=&quot;color: #abb2bf;&quot;&gt;&amp;nbsp;&lt;/span&gt;&lt;span style=&quot;color: #c678dd;&quot;&gt;const&lt;/span&gt;&lt;span style=&quot;color: #abb2bf;&quot;&gt; { &lt;/span&gt;&lt;span style=&quot;color: #e5c07b;&quot;&gt;themeMode&lt;/span&gt;&lt;span style=&quot;color: #abb2bf;&quot;&gt;, &lt;/span&gt;&lt;span style=&quot;color: #61afef;font-weight: bold;&quot;&gt;lightTheme&lt;/span&gt;&lt;span style=&quot;color: #abb2bf;&quot;&gt;, &lt;/span&gt;&lt;span style=&quot;color: #61afef;font-weight: bold;&quot;&gt;darkTheme&lt;/span&gt;&lt;span style=&quot;color: #abb2bf;&quot;&gt; } &lt;/span&gt;&lt;span style=&quot;color: #56b6c2;&quot;&gt;=&lt;/span&gt;&lt;span style=&quot;color: #abb2bf;&quot;&gt; &lt;/span&gt;&lt;span style=&quot;color: #61afef;font-weight: bold;&quot;&gt;useTheme&lt;/span&gt;&lt;span style=&quot;color: #abb2bf;&quot;&gt;();&lt;/span&gt;&lt;/div&gt;&lt;div&gt;&lt;span style=&quot;color: #abb2bf;&quot;&gt;return()&lt;/span&gt;&lt;/div&gt;&lt;div&gt;&lt;span style=&quot;color: #abb2bf;&quot;&gt;}&lt;/span&gt;&lt;/div&gt;&lt;/div&gt;" style="text;whiteSpace=wrap;html=1;fontSize=13;fontFamily=Comic Sans MS;" vertex="1" parent="1">
                    <mxGeometry x="-162.9938461538462" y="1759.99634765625" width="498" height="42" as="geometry"/>
                </mxCell>
                <mxCell id="21" value="&lt;b&gt;&lt;font style=&quot;font-size: 15px;&quot;&gt;Using theme Context in child components&lt;/font&gt;&lt;/b&gt;" style="text;html=1;align=center;verticalAlign=middle;resizable=0;points=[];autosize=1;strokeColor=none;fillColor=none;fontSize=13;fontFamily=Comic Sans MS;" vertex="1" parent="1">
                    <mxGeometry x="-167" y="1735" width="317" height="30" as="geometry"/>
                </mxCell>
                <mxCell id="23" value="&lt;h3&gt;&lt;strong&gt;Example:&lt;/strong&gt;&lt;/h3&gt;&lt;p&gt;Here’s a basic example of using Context API to manage a theme (light/dark) across multiple components:&lt;/p&gt;&lt;ol&gt;&lt;li&gt;&lt;strong&gt;Creating Context:&lt;/strong&gt;&lt;/li&gt;&lt;/ol&gt;&lt;pre class=&quot;!overflow-visible&quot;&gt;&lt;div class=&quot;dark bg-gray-950 contain-inline-size rounded-md border-[0.5px] border-token-border-medium relative&quot;&gt;&lt;div class=&quot;flex items-center text-token-text-secondary bg-token-main-surface-secondary px-4 py-2 text-xs font-sans justify-between rounded-t-md h-9&quot;&gt;javascript&lt;/div&gt;&lt;div class=&quot;sticky top-9 md:top-[5.75rem]&quot;&gt;&lt;div class=&quot;absolute bottom-0 right-2 flex h-9 items-center&quot;&gt;&lt;div class=&quot;flex items-center rounded bg-token-main-surface-secondary px-2 font-sans text-xs text-token-text-secondary&quot;&gt;&lt;span data-state=&quot;closed&quot; class=&quot;&quot;&gt;&lt;button class=&quot;flex gap-1 items-center py-1&quot;&gt;&lt;svg class=&quot;icon-sm&quot; xmlns=&quot;http://www.w3.org/2000/svg&quot; fill=&quot;none&quot; viewBox=&quot;0 0 24 24&quot; height=&quot;24&quot; width=&quot;24&quot;&gt;&lt;path fill=&quot;currentColor&quot; d=&quot;M7 5C7 3.34315 8.34315 2 10 2H19C20.6569 2 22 3.34315 22 5V14C22 15.6569 20.6569 17 19 17H17V19C17 20.6569 15.6569 22 14 22H5C3.34315 22 2 20.6569 2 19V10C2 8.34315 3.34315 7 5 7H7V5ZM9 7H14C15.6569 7 17 8.34315 17 10V15H19C19.5523 15 20 14.5523 20 14V5C20 4.44772 19.5523 4 19 4H10C9.44772 4 9 4.44772 9 5V7ZM5 9C4.44772 9 4 9.44772 4 10V19C4 19.5523 4.44772 20 5 20H14C14.5523 20 15 19.5523 15 19V10C15 9.44772 14.5523 9 14 9H5Z&quot; clip-rule=&quot;evenodd&quot; fill-rule=&quot;evenodd&quot;&gt;&lt;/path&gt;&lt;/svg&gt;Copy code&lt;/button&gt;&lt;/span&gt;&lt;/div&gt;&lt;/div&gt;&lt;/div&gt;&lt;div dir=&quot;ltr&quot; class=&quot;overflow-y-auto p-4&quot;&gt;&lt;code class=&quot;!whitespace-pre hljs language-javascript&quot;&gt;&lt;span class=&quot;hljs-keyword&quot;&gt;import&lt;/span&gt; { createContext, useState } &lt;span class=&quot;hljs-keyword&quot;&gt;from&lt;/span&gt; &lt;span class=&quot;hljs-string&quot;&gt;&quot;react&quot;&lt;/span&gt;;&lt;br/&gt;&lt;br/&gt;&lt;span class=&quot;hljs-comment&quot;&gt;// Create a new context for the theme&lt;/span&gt;&lt;br/&gt;&lt;span class=&quot;hljs-keyword&quot;&gt;export&lt;/span&gt; &lt;span class=&quot;hljs-keyword&quot;&gt;const&lt;/span&gt; &lt;span class=&quot;hljs-title class_&quot;&gt;ThemeContext&lt;/span&gt; = &lt;span class=&quot;hljs-title function_&quot;&gt;createContext&lt;/span&gt;();&lt;br/&gt;&lt;/code&gt;&lt;/div&gt;&lt;/div&gt;&lt;/pre&gt;&lt;ol start=&quot;2&quot;&gt;&lt;li&gt;&lt;strong&gt;Using the Provider to Wrap Components:&lt;/strong&gt;&lt;/li&gt;&lt;/ol&gt;&lt;pre class=&quot;!overflow-visible&quot;&gt;&lt;div class=&quot;dark bg-gray-950 contain-inline-size rounded-md border-[0.5px] border-token-border-medium relative&quot;&gt;&lt;div class=&quot;flex items-center text-token-text-secondary bg-token-main-surface-secondary px-4 py-2 text-xs font-sans justify-between rounded-t-md h-9&quot;&gt;javascript&lt;/div&gt;&lt;div class=&quot;sticky top-9 md:top-[5.75rem]&quot;&gt;&lt;div class=&quot;absolute bottom-0 right-2 flex h-9 items-center&quot;&gt;&lt;div class=&quot;flex items-center rounded bg-token-main-surface-secondary px-2 font-sans text-xs text-token-text-secondary&quot;&gt;&lt;span data-state=&quot;closed&quot; class=&quot;&quot;&gt;&lt;button class=&quot;flex gap-1 items-center py-1&quot;&gt;&lt;svg class=&quot;icon-sm&quot; xmlns=&quot;http://www.w3.org/2000/svg&quot; fill=&quot;none&quot; viewBox=&quot;0 0 24 24&quot; height=&quot;24&quot; width=&quot;24&quot;&gt;&lt;path fill=&quot;currentColor&quot; d=&quot;M7 5C7 3.34315 8.34315 2 10 2H19C20.6569 2 22 3.34315 22 5V14C22 15.6569 20.6569 17 19 17H17V19C17 20.6569 15.6569 22 14 22H5C3.34315 22 2 20.6569 2 19V10C2 8.34315 3.34315 7 5 7H7V5ZM9 7H14C15.6569 7 17 8.34315 17 10V15H19C19.5523 15 20 14.5523 20 14V5C20 4.44772 19.5523 4 19 4H10C9.44772 4 9 4.44772 9 5V7ZM5 9C4.44772 9 4 9.44772 4 10V19C4 19.5523 4.44772 20 5 20H14C14.5523 20 15 19.5523 15 19V10C15 9.44772 14.5523 9 14 9H5Z&quot; clip-rule=&quot;evenodd&quot; fill-rule=&quot;evenodd&quot;&gt;&lt;/path&gt;&lt;/svg&gt;Copy code&lt;/button&gt;&lt;/span&gt;&lt;/div&gt;&lt;/div&gt;&lt;/div&gt;&lt;div dir=&quot;ltr&quot; class=&quot;overflow-y-auto p-4&quot;&gt;&lt;code class=&quot;!whitespace-pre hljs language-javascript&quot;&gt;&lt;span class=&quot;hljs-keyword&quot;&gt;import&lt;/span&gt; { &lt;span class=&quot;hljs-title class_&quot;&gt;ThemeContext&lt;/span&gt; } &lt;span class=&quot;hljs-keyword&quot;&gt;from&lt;/span&gt; &lt;span class=&quot;hljs-string&quot;&gt;&quot;./ThemeContext&quot;&lt;/span&gt;;&lt;br/&gt;&lt;br/&gt;&lt;span class=&quot;hljs-keyword&quot;&gt;function&lt;/span&gt; &lt;span class=&quot;hljs-title function_&quot;&gt;App&lt;/span&gt;(&lt;span class=&quot;hljs-params&quot;&gt;&lt;/span&gt;) {&lt;br/&gt;  &lt;span class=&quot;hljs-keyword&quot;&gt;const&lt;/span&gt; [theme, setTheme] = &lt;span class=&quot;hljs-title function_&quot;&gt;useState&lt;/span&gt;(&lt;span class=&quot;hljs-string&quot;&gt;&quot;light&quot;&lt;/span&gt;);&lt;br/&gt;&lt;br/&gt;  &lt;span class=&quot;hljs-keyword&quot;&gt;const&lt;/span&gt; &lt;span class=&quot;hljs-title function_&quot;&gt;toggleTheme&lt;/span&gt; = (&lt;span class=&quot;hljs-params&quot;&gt;&lt;/span&gt;) =&amp;gt; {&lt;br/&gt;    &lt;span class=&quot;hljs-title function_&quot;&gt;setTheme&lt;/span&gt;(&lt;span class=&quot;hljs-function&quot;&gt;(&lt;span class=&quot;hljs-params&quot;&gt;prevTheme&lt;/span&gt;) =&amp;gt;&lt;/span&gt; (prevTheme === &lt;span class=&quot;hljs-string&quot;&gt;&quot;light&quot;&lt;/span&gt; ? &lt;span class=&quot;hljs-string&quot;&gt;&quot;dark&quot;&lt;/span&gt; : &lt;span class=&quot;hljs-string&quot;&gt;&quot;light&quot;&lt;/span&gt;));&lt;br/&gt;  };&lt;br/&gt;&lt;br/&gt;  &lt;span class=&quot;hljs-keyword&quot;&gt;return&lt;/span&gt; (&lt;br/&gt;    &lt;span class=&quot;xml&quot;&gt;&lt;span class=&quot;hljs-tag&quot;&gt;&amp;lt;&lt;span class=&quot;hljs-name&quot;&gt;ThemeContext.Provider&lt;/span&gt; &lt;span class=&quot;hljs-attr&quot;&gt;value&lt;/span&gt;=&lt;span class=&quot;hljs-string&quot;&gt;{{&lt;/span&gt; &lt;span class=&quot;hljs-attr&quot;&gt;theme&lt;/span&gt;, &lt;span class=&quot;hljs-attr&quot;&gt;toggleTheme&lt;/span&gt; }}&amp;gt;&lt;/span&gt;&lt;br/&gt;      &lt;span class=&quot;hljs-tag&quot;&gt;&amp;lt;&lt;span class=&quot;hljs-name&quot;&gt;ChildComponent&lt;/span&gt; /&amp;gt;&lt;/span&gt;&lt;br/&gt;    &lt;span class=&quot;hljs-tag&quot;&gt;&amp;lt;/&lt;span class=&quot;hljs-name&quot;&gt;ThemeContext.Provider&lt;/span&gt;&amp;gt;&lt;/span&gt;&lt;/span&gt;&lt;br/&gt;  );&lt;br/&gt;}&lt;br/&gt;&lt;/code&gt;&lt;/div&gt;&lt;/div&gt;&lt;/pre&gt;&lt;ol start=&quot;3&quot;&gt;&lt;li&gt;&lt;strong&gt;Accessing the Context in Child Components:&lt;/strong&gt;&lt;/li&gt;&lt;/ol&gt;&lt;pre class=&quot;!overflow-visible&quot;&gt;&lt;div class=&quot;dark bg-gray-950 contain-inline-size rounded-md border-[0.5px] border-token-border-medium relative&quot;&gt;&lt;div class=&quot;flex items-center text-token-text-secondary bg-token-main-surface-secondary px-4 py-2 text-xs font-sans justify-between rounded-t-md h-9&quot;&gt;javascript&lt;/div&gt;&lt;div class=&quot;sticky top-9 md:top-[5.75rem]&quot;&gt;&lt;div class=&quot;absolute bottom-0 right-2 flex h-9 items-center&quot;&gt;&lt;div class=&quot;flex items-center rounded bg-token-main-surface-secondary px-2 font-sans text-xs text-token-text-secondary&quot;&gt;&lt;span data-state=&quot;closed&quot; class=&quot;&quot;&gt;&lt;button class=&quot;flex gap-1 items-center py-1&quot;&gt;&lt;svg class=&quot;icon-sm&quot; xmlns=&quot;http://www.w3.org/2000/svg&quot; fill=&quot;none&quot; viewBox=&quot;0 0 24 24&quot; height=&quot;24&quot; width=&quot;24&quot;&gt;&lt;path fill=&quot;currentColor&quot; d=&quot;M7 5C7 3.34315 8.34315 2 10 2H19C20.6569 2 22 3.34315 22 5V14C22 15.6569 20.6569 17 19 17H17V19C17 20.6569 15.6569 22 14 22H5C3.34315 22 2 20.6569 2 19V10C2 8.34315 3.34315 7 5 7H7V5ZM9 7H14C15.6569 7 17 8.34315 17 10V15H19C19.5523 15 20 14.5523 20 14V5C20 4.44772 19.5523 4 19 4H10C9.44772 4 9 4.44772 9 5V7ZM5 9C4.44772 9 4 9.44772 4 10V19C4 19.5523 4.44772 20 5 20H14C14.5523 20 15 19.5523 15 19V10C15 9.44772 14.5523 9 14 9H5Z&quot; clip-rule=&quot;evenodd&quot; fill-rule=&quot;evenodd&quot;&gt;&lt;/path&gt;&lt;/svg&gt;Copy code&lt;/button&gt;&lt;/span&gt;&lt;/div&gt;&lt;/div&gt;&lt;/div&gt;&lt;div dir=&quot;ltr&quot; class=&quot;overflow-y-auto p-4&quot;&gt;&lt;code class=&quot;!whitespace-pre hljs language-javascript&quot;&gt;&lt;span class=&quot;hljs-keyword&quot;&gt;import&lt;/span&gt; { useContext } &lt;span class=&quot;hljs-keyword&quot;&gt;from&lt;/span&gt; &lt;span class=&quot;hljs-string&quot;&gt;&quot;react&quot;&lt;/span&gt;;&lt;br/&gt;&lt;span class=&quot;hljs-keyword&quot;&gt;import&lt;/span&gt; { &lt;span class=&quot;hljs-title class_&quot;&gt;ThemeContext&lt;/span&gt; } &lt;span class=&quot;hljs-keyword&quot;&gt;from&lt;/span&gt; &lt;span class=&quot;hljs-string&quot;&gt;&quot;./ThemeContext&quot;&lt;/span&gt;;&lt;br/&gt;&lt;br/&gt;&lt;span class=&quot;hljs-keyword&quot;&gt;function&lt;/span&gt; &lt;span class=&quot;hljs-title function_&quot;&gt;ChildComponent&lt;/span&gt;(&lt;span class=&quot;hljs-params&quot;&gt;&lt;/span&gt;) {&lt;br/&gt;  &lt;span class=&quot;hljs-keyword&quot;&gt;const&lt;/span&gt; { theme, toggleTheme } = &lt;span class=&quot;hljs-title function_&quot;&gt;useContext&lt;/span&gt;(&lt;span class=&quot;hljs-title class_&quot;&gt;ThemeContext&lt;/span&gt;);&lt;br/&gt;&lt;br/&gt;  &lt;span class=&quot;hljs-keyword&quot;&gt;return&lt;/span&gt; (&lt;br/&gt;    &lt;span class=&quot;xml&quot;&gt;&lt;span class=&quot;hljs-tag&quot;&gt;&amp;lt;&lt;span class=&quot;hljs-name&quot;&gt;div&lt;/span&gt;&amp;gt;&lt;/span&gt;&lt;br/&gt;      &lt;span class=&quot;hljs-tag&quot;&gt;&amp;lt;&lt;span class=&quot;hljs-name&quot;&gt;p&lt;/span&gt;&amp;gt;&lt;/span&gt;Current Theme: {theme}&lt;span class=&quot;hljs-tag&quot;&gt;&amp;lt;/&lt;span class=&quot;hljs-name&quot;&gt;p&lt;/span&gt;&amp;gt;&lt;/span&gt;&lt;br/&gt;      &lt;span class=&quot;hljs-tag&quot;&gt;&amp;lt;&lt;span class=&quot;hljs-name&quot;&gt;button&lt;/span&gt; &lt;span class=&quot;hljs-attr&quot;&gt;onClick&lt;/span&gt;=&lt;span class=&quot;hljs-string&quot;&gt;{toggleTheme}&lt;/span&gt;&amp;gt;&lt;/span&gt;Toggle Theme&lt;span class=&quot;hljs-tag&quot;&gt;&amp;lt;/&lt;span class=&quot;hljs-name&quot;&gt;button&lt;/span&gt;&amp;gt;&lt;/span&gt;&lt;br/&gt;    &lt;span class=&quot;hljs-tag&quot;&gt;&amp;lt;/&lt;span class=&quot;hljs-name&quot;&gt;div&lt;/span&gt;&amp;gt;&lt;/span&gt;&lt;/span&gt;&lt;br/&gt;  );&lt;br/&gt;}&lt;br/&gt;&lt;/code&gt;&lt;/div&gt;&lt;/div&gt;&lt;/pre&gt;&lt;h3&gt;&lt;strong&gt;When to Use the Context API?&lt;/strong&gt;&lt;/h3&gt;&lt;p&gt;You should consider using the Context API when:&lt;/p&gt;&lt;ol&gt;&lt;li&gt;&lt;p&gt;&lt;strong&gt;Data needs to be shared globally&lt;/strong&gt;: If you have state or data that multiple components at different levels in the hierarchy need to access, Context API is a good choice.&lt;/p&gt;&lt;/li&gt;&lt;li&gt;&lt;p&gt;&lt;strong&gt;Avoiding prop drilling&lt;/strong&gt;: If passing props down many levels (prop drilling) becomes cumbersome or messy, Context API can simplify your code.&lt;/p&gt;&lt;/li&gt;&lt;li&gt;&lt;p&gt;&lt;strong&gt;Managing global settings&lt;/strong&gt;: For example, if you have global themes, authentication, language settings, or user preferences, you can use the Context API to manage these in a more centralized way.&lt;/p&gt;&lt;/li&gt;&lt;/ol&gt;" style="rounded=0;whiteSpace=wrap;html=1;fontFamily=Comic Sans MS;fontSize=15;" vertex="1" parent="1">
                    <mxGeometry x="-1597" y="1119" width="1078" height="1423" as="geometry"/>
                </mxCell>
                <mxCell id="25" value="&lt;b&gt;&lt;font style=&quot;font-size: 30px;&quot;&gt;Also a way to use Context api&lt;/font&gt;&lt;/b&gt;" style="text;strokeColor=none;fillColor=none;html=1;align=center;verticalAlign=middle;whiteSpace=wrap;rounded=0;fontFamily=Comic Sans MS;fontSize=15;" vertex="1" parent="1">
                    <mxGeometry x="-1638" y="1077" width="552" height="30" as="geometry"/>
                </mxCell>
            </root>
        </mxGraphModel>
    </diagram>
</mxfile>